<svg id="DeepSweep.ai" xmlns="http://www.w3.org/2000/svg" width="304.937" height="51.969" viewBox="0 0 304.937 51.969">
  <defs>
    <style>
      .cls-1 {
        fill: #fff;
        fill-rule: evenodd;
      }
    </style>
  </defs>
  <path id="DeepSweep_Logo_Icon_v4_2_copy_2" data-name="DeepSweep Logo Icon v4 2 copy 2" class="cls-1" d="M74.164,45.411h2.774a1.724,1.724,0,0,0,.784-0.846,4.043,4.043,0,0,1,1.508-1.087,3.771,3.771,0,0,1,3.98,1.027,4.8,4.8,0,0,1,.543,1.087,3.34,3.34,0,0,1,.181,1.993c-0.572,1.9-2.957,3.664-5.246,2.235a4.482,4.482,0,0,1-1.206-1.147,1.194,1.194,0,0,0-.543-0.664,9.317,9.317,0,0,0-3.558.121,3.492,3.492,0,0,0-1.085,1.631c-0.341.653-.685,1.358-1.086,1.993-0.894,1.418-1.975,2.665-2.955,3.986l-1.086,1.027-0.06.181c-0.082.1-.268,0.149-0.362,0.242l-0.965,1.027c-1.19.886-2.273,1.919-3.5,2.778-0.962.675-2.016,1.256-3.015,1.872-0.231.142-.5,0.15-0.724,0.3A1.588,1.588,0,0,0,58,64.678a0.962,0.962,0,0,0,.06.483,1.53,1.53,0,0,0,.724.6,4.407,4.407,0,0,1,.724.966,3.172,3.172,0,0,1-2.352,4.53,2.561,2.561,0,0,1-1.508-.242,3.1,3.1,0,0,1-1.929-3.564,4.6,4.6,0,0,1,1.749-2.3,4.283,4.283,0,0,0-.06-1.449,3.708,3.708,0,0,0-1.628-1.087c-0.837-.515-1.71-1.019-2.533-1.57-0.742-.5-1.444-1.095-2.171-1.631l-0.241-.3a26.421,26.421,0,0,1-5.789-6.16,32.5,32.5,0,0,1-1.99-3.5c-0.244-.466-0.374-1.219-0.9-1.389a1.76,1.76,0,0,0-.965-0.121,10.959,10.959,0,0,0-2.653.06c-0.5.177-.824,1.124-1.266,1.45a3.446,3.446,0,0,1-4.4.06,2.55,2.55,0,0,1-.6-0.483,4.973,4.973,0,0,1-.663-1.268,3.673,3.673,0,0,1,1.206-3.8,4.107,4.107,0,0,1,.9-0.423A3.135,3.135,0,0,1,33.52,43.3a6.005,6.005,0,0,1,2.955,2.114h2.291a1.138,1.138,0,0,0,.422-0.846,3.094,3.094,0,0,1-.3-0.966c-0.193-.569-0.365-1.27-0.543-1.872q-0.06-.453-0.12-0.906c-0.344-1.219-.339-2.687-0.663-3.986-0.15-.6-0.042-1.31-0.181-1.872q-0.03-1.027-.06-2.053a16.219,16.219,0,0,1-.06-3.261V28.2l0.181-.544c1.3-.741,3.366-0.806,4.884-1.329,1.6-.551,3.243-1.022,4.764-1.691,0.692-.3,1.435-0.726,2.111-1.027a14.183,14.183,0,0,0,1.749-.785c1.3-.8,2.659-1.515,3.92-2.355a4.109,4.109,0,0,1,2.05-1.148c0.139,0.114.329,0.14,0.483,0.242s0.325,0.312.482,0.423c0.433,0.3.874,0.5,1.327,0.785,0.688,0.437,1.407.953,2.11,1.389a17.475,17.475,0,0,0,2.111,1.027c0.436,0.2.89,0.531,1.327,0.725,1.712,0.759,3.493,1.436,5.306,2.053,1.465,0.5,3.02.767,4.523,1.208,0.61,0.179,1.322.074,1.507,0.664a3.255,3.255,0,0,1,.121,1.51c0,1.113,0,2.209,0,3.382a11.57,11.57,0,0,1-.181,2.476v0.725c-0.153.63-.149,1.442-0.3,2.053q-0.06.664-.121,1.329c-0.258,1-.307,2.073-0.6,3.08Q74.586,43.9,74.164,45.411ZM40.455,29.949c-0.115,6.306.814,12.25,2.714,16.609a12.927,12.927,0,0,0,2.352,4.167l0.3,0.362a2.161,2.161,0,0,0,2.231-.06l5.608-5.677a2.418,2.418,0,0,0,.06-1.933c-0.486-.3-1.611-1.064-2.593-0.785a3.871,3.871,0,0,0-1.086.725,5.18,5.18,0,0,1-1.568.6,2.836,2.836,0,0,1-1.869-.362,4.863,4.863,0,0,1-.482-0.181,3.768,3.768,0,0,1-1.387-4.349,4.173,4.173,0,0,1,1.085-1.389,3.585,3.585,0,0,1,1.146-.664,3.653,3.653,0,0,1,4.161,1.51,4.573,4.573,0,0,0,1.085,1.691c0.438,0.318,1.556,1.14,2.412.785,0.946-.392,1.025-1.233,1.025-2.6q-0.03-.6-0.06-1.208a2.2,2.2,0,0,0-1.146-1.148A3.859,3.859,0,0,1,53.42,34.66a3.653,3.653,0,0,1,1.749-4.771,2.963,2.963,0,0,1,1.93-.423,4.936,4.936,0,0,1,1.809.785,3.774,3.774,0,0,1,.663,5.255c-0.389.541-1.285,0.767-1.568,1.389a6.327,6.327,0,0,0,.06,3.5c0.755,1.131,2.405.493,3.256-.121,0.827-.6.921-1.989,1.749-2.6a5.239,5.239,0,0,1,1.387-.725,3.7,3.7,0,0,1,4.281,2.114,7.14,7.14,0,0,1,.181,1.148,3.546,3.546,0,0,1-1.387,3.08,3.766,3.766,0,0,1-.784.362,2.584,2.584,0,0,1-1.568.3,5.586,5.586,0,0,1-1.507-.483,5.378,5.378,0,0,0-1.327-.846,3.266,3.266,0,0,0-2.593.906,0.628,0.628,0,0,0-.121.362,2.142,2.142,0,0,0,.9,2.174L64.4,49.941l1.688,1.752a2.1,2.1,0,0,1,.362.181,2.268,2.268,0,0,0,.844-0.06,2.7,2.7,0,0,0,.844-1.027c0.381-.572.778-1.213,1.146-1.812,0.2-.327.244-0.673,0.422-1.027,2.411-4.786,3.286-10.819,3.317-18a5.249,5.249,0,0,1-1.145-.3c-0.492-.157-0.9-0.136-1.387-0.3l-1.93-.664a45.879,45.879,0,0,1-6.513-2.658L61.5,25.842c-1.644-.865-3.178-1.92-4.7-2.9a5.987,5.987,0,0,0-1.266.846c-1.006.64-2.067,1.189-3.075,1.812l-0.965.423c-1.1.576-2.333,1.129-3.5,1.631-0.3.13-.541,0.114-0.844,0.242-1.028.434-2.22,0.834-3.317,1.208l-1.085.241A11.735,11.735,0,0,1,40.455,29.949Zm15.98,12.079c-0.17.125-.425,0.12-0.6,0.242a1.486,1.486,0,0,0-.422,1.691,1.251,1.251,0,0,0,1.387.906,0.78,0.78,0,0,0,.543-0.121,1.456,1.456,0,0,0,.784-1.812A1.531,1.531,0,0,0,56.435,42.029Zm-0.3,4.409a2.86,2.86,0,0,1-.6.181,4.172,4.172,0,0,0-.724.483L53.722,48.25l-2.653,2.6a2.841,2.841,0,0,1-.241.362,11.007,11.007,0,0,0-2.111,2.235c-0.492,1.181.608,2,1.086,2.476a26.117,26.117,0,0,0,4.945,3.624,6.609,6.609,0,0,0,2.111,1.087,2.354,2.354,0,0,1,.6-0.3c0.365-.192.744-0.453,1.086-0.664l0.362-.121c0.98-.607,1.965-1.256,2.895-1.933l0.181-.242c0.246-.181.478-0.3,0.724-0.483l0.3-.362a6.832,6.832,0,0,0,1.749-1.691c0.8-1.3-.782-2.419-1.387-2.96l-1.206-1.268-2.472-2.416A5.508,5.508,0,0,0,57.581,46.5,5.364,5.364,0,0,0,56.134,46.438Z" transform="translate(-29.469 -19.313)"/>
  <path id="DEEPSWEEP_FONT:_Wix_Madefor_Display_copy_10" data-name="DEEPSWEEP (FONT: Wix Madefor Display) copy 10" class="cls-1" d="M103.905,28.608H94.3V59.37h9.6a19.464,19.464,0,0,0,8.739-1.832,12.971,12.971,0,0,0,5.664-5.3,16.3,16.3,0,0,0,1.969-8.187,16.428,16.428,0,0,0-1.969-8.209,13.21,13.21,0,0,0-5.664-5.362,19.084,19.084,0,0,0-8.739-1.876h0Zm0,27.452H98.329V31.874h5.576q5.928,0,9.093,3.222t3.164,8.959q0,5.693-3.142,8.849t-9.115,3.156h0Zm41.594-9.71a12.162,12.162,0,0,0-1.438-5.936,10.409,10.409,0,0,0-4.093-4.127,12.2,12.2,0,0,0-6.106-1.5A12.607,12.607,0,0,0,127.6,36.31a10.551,10.551,0,0,0-4.226,4.347,13.786,13.786,0,0,0-1.5,6.576,13.584,13.584,0,0,0,1.549,6.6,10.944,10.944,0,0,0,4.27,4.391,12.279,12.279,0,0,0,6.173,1.545,11.776,11.776,0,0,0,7.257-2.185,10.4,10.4,0,0,0,3.894-5.671h-4.337a6.426,6.426,0,0,1-2.456,3.244,7.457,7.457,0,0,1-4.358,1.214,7.613,7.613,0,0,1-7.877-7.591h19.382a23.7,23.7,0,0,0,.132-2.427h0Zm-4.159-.838H126.029a7.9,7.9,0,0,1,2.456-5.385,7.476,7.476,0,0,1,5.2-1.942,8.64,8.64,0,0,1,3.871.861,6.611,6.611,0,0,1,2.766,2.516,7.4,7.4,0,0,1,1.018,3.95h0Zm29.382,0.838a12.162,12.162,0,0,0-1.438-5.936,10.418,10.418,0,0,0-4.094-4.127,12.2,12.2,0,0,0-6.106-1.5,12.6,12.6,0,0,0-6.261,1.523,10.539,10.539,0,0,0-4.226,4.347,13.786,13.786,0,0,0-1.5,6.576,13.584,13.584,0,0,0,1.549,6.6,10.944,10.944,0,0,0,4.27,4.391,12.279,12.279,0,0,0,6.173,1.545,11.774,11.774,0,0,0,7.257-2.185,10.4,10.4,0,0,0,3.894-5.671H165.9a6.432,6.432,0,0,1-2.456,3.244,7.462,7.462,0,0,1-4.359,1.214,7.611,7.611,0,0,1-7.876-7.591h19.381a23.711,23.711,0,0,0,.133-2.427h0Zm-4.16-.838h-15.31a7.9,7.9,0,0,1,2.456-5.385,7.474,7.474,0,0,1,5.2-1.942,8.647,8.647,0,0,1,3.872.861,6.614,6.614,0,0,1,2.765,2.516,7.39,7.39,0,0,1,1.018,3.95h0Zm11.284-5.87V35.185h-4.027V70.845h4.027V54.913a9.945,9.945,0,0,0,3.606,3.465,10.59,10.59,0,0,0,5.465,1.39,11.035,11.035,0,0,0,10-6.046,13.851,13.851,0,0,0,1.5-6.532,13.558,13.558,0,0,0-1.5-6.51,10.905,10.905,0,0,0-4.137-4.347,11.373,11.373,0,0,0-5.863-1.545,10.676,10.676,0,0,0-5.509,1.39,9.589,9.589,0,0,0-3.562,3.465h0Zm16.461,7.547a10.044,10.044,0,0,1-1.107,4.833,7.766,7.766,0,0,1-2.986,3.134,8.153,8.153,0,0,1-4.138,1.081,8.066,8.066,0,0,1-4.093-1.081,7.911,7.911,0,0,1-3.009-3.134,10.635,10.635,0,0,1,0-9.533,7.915,7.915,0,0,1,3.009-3.133,8.072,8.072,0,0,1,4.093-1.081,8.29,8.29,0,0,1,4.138,1.059,7.651,7.651,0,0,1,2.986,3.089,9.819,9.819,0,0,1,1.107,4.767h0ZM211.3,59.679a11.71,11.71,0,0,0,5.532-1.236,8.777,8.777,0,0,0,3.54-3.222,8.086,8.086,0,0,0,1.194-4.237,7.3,7.3,0,0,0-1.327-4.612,8.2,8.2,0,0,0-3.186-2.516,36.884,36.884,0,0,0-4.912-1.655q-2.522-.706-3.916-1.258a6.129,6.129,0,0,1-2.345-1.611,3.935,3.935,0,0,1-.951-2.736,4.441,4.441,0,0,1,1.593-3.641,6.294,6.294,0,0,1,4.115-1.3A6.613,6.613,0,0,1,214.971,33a4.766,4.766,0,0,1,1.859,3.111h4.425a7.99,7.99,0,0,0-3.12-5.738,11.192,11.192,0,0,0-7.1-2.163A12.727,12.727,0,0,0,205.7,29.27a8.36,8.36,0,0,0-3.607,3,7.9,7.9,0,0,0-1.283,4.458,7.3,7.3,0,0,0,1.306,4.568,7.867,7.867,0,0,0,3.141,2.494,34.778,34.778,0,0,0,4.89,1.589,38.166,38.166,0,0,1,3.938,1.236,6.224,6.224,0,0,1,2.434,1.677,4.178,4.178,0,0,1,.974,2.869,4.65,4.65,0,0,1-1.66,3.685,6.7,6.7,0,0,1-4.536,1.434,6.436,6.436,0,0,1-4.579-1.478,5.625,5.625,0,0,1-1.792-3.641h-4.293A7.676,7.676,0,0,0,202.05,55.6a9.091,9.091,0,0,0,3.784,3,13.208,13.208,0,0,0,5.464,1.081h0Zm42.3-24.495-5.487,20.346-5.885-20.346h-4.115l-6.018,20.3-5.576-20.3h-4.115l7.611,24.186h4.159l5.841-19.2,5.841,19.2h4.16l7.567-24.186H253.6Zm27.877,11.166a12.151,12.151,0,0,0-1.438-5.936,10.409,10.409,0,0,0-4.093-4.127,12.2,12.2,0,0,0-6.106-1.5,12.607,12.607,0,0,0-6.262,1.523,10.543,10.543,0,0,0-4.225,4.347,13.775,13.775,0,0,0-1.5,6.576,13.584,13.584,0,0,0,1.549,6.6,10.944,10.944,0,0,0,4.27,4.391,12.279,12.279,0,0,0,6.173,1.545,11.776,11.776,0,0,0,7.257-2.185,10.4,10.4,0,0,0,3.894-5.671h-4.337a6.426,6.426,0,0,1-2.456,3.244,7.457,7.457,0,0,1-4.358,1.214,7.613,7.613,0,0,1-7.877-7.591h19.382a23.7,23.7,0,0,0,.132-2.427h0Zm-4.159-.838h-15.31a7.9,7.9,0,0,1,2.455-5.385,7.476,7.476,0,0,1,5.2-1.942,8.64,8.64,0,0,1,3.871.861,6.617,6.617,0,0,1,2.766,2.516,7.4,7.4,0,0,1,1.018,3.95h0ZM306.7,46.351a12.162,12.162,0,0,0-1.438-5.936,10.418,10.418,0,0,0-4.094-4.127,12.2,12.2,0,0,0-6.106-1.5A12.6,12.6,0,0,0,288.8,36.31a10.539,10.539,0,0,0-4.226,4.347,13.786,13.786,0,0,0-1.5,6.576,13.584,13.584,0,0,0,1.549,6.6,10.944,10.944,0,0,0,4.27,4.391,12.281,12.281,0,0,0,6.173,1.545,11.774,11.774,0,0,0,7.257-2.185,10.4,10.4,0,0,0,3.894-5.671h-4.336a6.428,6.428,0,0,1-2.457,3.244,7.457,7.457,0,0,1-4.358,1.214,7.613,7.613,0,0,1-7.876-7.591h19.381a23.711,23.711,0,0,0,.133-2.427h0Zm-4.16-.838h-15.31a7.9,7.9,0,0,1,2.456-5.385,7.472,7.472,0,0,1,5.2-1.942,8.647,8.647,0,0,1,3.872.861,6.614,6.614,0,0,1,2.765,2.516,7.39,7.39,0,0,1,1.018,3.95h0Zm11.284-5.87V35.185H309.8V70.845h4.027V54.913a9.945,9.945,0,0,0,3.606,3.465,10.59,10.59,0,0,0,5.465,1.39,11.037,11.037,0,0,0,10-6.046,13.863,13.863,0,0,0,1.5-6.532,13.569,13.569,0,0,0-1.5-6.51,10.914,10.914,0,0,0-4.138-4.347,11.373,11.373,0,0,0-5.863-1.545,10.676,10.676,0,0,0-5.509,1.39,9.589,9.589,0,0,0-3.562,3.465h0Zm16.461,7.547a10.056,10.056,0,0,1-1.106,4.833,7.774,7.774,0,0,1-2.987,3.134,8.153,8.153,0,0,1-4.138,1.081,8.066,8.066,0,0,1-4.093-1.081,7.918,7.918,0,0,1-3.009-3.134,10.635,10.635,0,0,1,0-9.533,7.921,7.921,0,0,1,3.009-3.133,8.072,8.072,0,0,1,4.093-1.081,8.29,8.29,0,0,1,4.138,1.059,7.659,7.659,0,0,1,2.987,3.089,9.83,9.83,0,0,1,1.106,4.767h0ZM74.164,45.411h2.774a1.724,1.724,0,0,0,.784-0.846,4.043,4.043,0,0,1,1.508-1.087,3.771,3.771,0,0,1,3.98,1.027,4.8,4.8,0,0,1,.543,1.087,3.34,3.34,0,0,1,.181,1.993c-0.572,1.9-2.957,3.664-5.246,2.235a4.482,4.482,0,0,1-1.206-1.147,1.194,1.194,0,0,0-.543-0.664,9.317,9.317,0,0,0-3.558.121,3.492,3.492,0,0,0-1.085,1.631c-0.341.653-.685,1.358-1.086,1.993-0.894,1.418-1.975,2.665-2.955,3.986l-1.086,1.027-0.06.181c-0.082.1-.268,0.149-0.362,0.242l-0.965,1.027c-1.19.886-2.273,1.919-3.5,2.778-0.962.675-2.016,1.256-3.015,1.872-0.231.142-.5,0.15-0.724,0.3A1.588,1.588,0,0,0,58,64.678a0.962,0.962,0,0,0,.06.483,1.53,1.53,0,0,0,.724.6,4.407,4.407,0,0,1,.724.966,3.172,3.172,0,0,1-2.352,4.53,2.561,2.561,0,0,1-1.508-.242,3.1,3.1,0,0,1-1.929-3.564,4.6,4.6,0,0,1,1.749-2.3,4.283,4.283,0,0,0-.06-1.449,3.708,3.708,0,0,0-1.628-1.087c-0.837-.515-1.71-1.019-2.533-1.57-0.742-.5-1.444-1.095-2.171-1.631l-0.241-.3a26.421,26.421,0,0,1-5.789-6.16,32.5,32.5,0,0,1-1.99-3.5c-0.244-.466-0.374-1.219-0.9-1.389a1.76,1.76,0,0,0-.965-0.121,10.959,10.959,0,0,0-2.653.06c-0.5.177-.824,1.124-1.266,1.45a3.446,3.446,0,0,1-4.4.06,2.55,2.55,0,0,1-.6-0.483,4.973,4.973,0,0,1-.663-1.268,3.673,3.673,0,0,1,1.206-3.8,4.107,4.107,0,0,1,.9-0.423A3.135,3.135,0,0,1,33.52,43.3a6.005,6.005,0,0,1,2.955,2.114h2.291a1.138,1.138,0,0,0,.422-0.846,3.094,3.094,0,0,1-.3-0.966c-0.193-.569-0.365-1.27-0.543-1.872q-0.06-.453-0.12-0.906c-0.344-1.219-.339-2.687-0.663-3.986-0.15-.6-0.042-1.31-0.181-1.872q-0.03-1.027-.06-2.053a16.219,16.219,0,0,1-.06-3.261V28.2l0.181-.544c1.3-.741,3.366-0.806,4.884-1.329,1.6-.551,3.243-1.022,4.764-1.691,0.692-.3,1.435-0.726,2.111-1.027a14.183,14.183,0,0,0,1.749-.785c1.3-.8,2.659-1.515,3.92-2.355a4.109,4.109,0,0,1,2.05-1.148c0.139,0.114.329,0.14,0.483,0.242s0.325,0.312.482,0.423c0.433,0.3.874,0.5,1.327,0.785,0.688,0.437,1.407.953,2.11,1.389a17.475,17.475,0,0,0,2.111,1.027c0.436,0.2.89,0.531,1.327,0.725,1.712,0.759,3.493,1.436,5.306,2.053,1.465,0.5,3.02.767,4.523,1.208,0.61,0.179,1.322.074,1.507,0.664a3.255,3.255,0,0,1,.121,1.51c0,1.113,0,2.209,0,3.382a11.57,11.57,0,0,1-.181,2.476v0.725c-0.153.63-.149,1.442-0.3,2.053q-0.06.664-.121,1.329c-0.258,1-.307,2.073-0.6,3.08Q74.586,43.9,74.164,45.411ZM40.455,29.949c-0.115,6.306.814,12.25,2.714,16.609a12.927,12.927,0,0,0,2.352,4.167l0.3,0.362a2.161,2.161,0,0,0,2.231-.06l5.608-5.677a2.418,2.418,0,0,0,.06-1.933c-0.486-.3-1.611-1.064-2.593-0.785a3.871,3.871,0,0,0-1.086.725,5.18,5.18,0,0,1-1.568.6,2.836,2.836,0,0,1-1.869-.362,4.863,4.863,0,0,1-.482-0.181,3.768,3.768,0,0,1-1.387-4.349,4.173,4.173,0,0,1,1.085-1.389,3.585,3.585,0,0,1,1.146-.664,3.653,3.653,0,0,1,4.161,1.51,4.573,4.573,0,0,0,1.085,1.691c0.438,0.318,1.556,1.14,2.412.785,0.946-.392,1.025-1.233,1.025-2.6q-0.03-.6-0.06-1.208a2.2,2.2,0,0,0-1.146-1.148A3.859,3.859,0,0,1,53.42,34.66a3.653,3.653,0,0,1,1.749-4.771,2.963,2.963,0,0,1,1.93-.423,4.936,4.936,0,0,1,1.809.785,3.774,3.774,0,0,1,.663,5.255c-0.389.541-1.285,0.767-1.568,1.389a6.327,6.327,0,0,0,.06,3.5c0.755,1.131,2.405.493,3.256-.121,0.827-.6.921-1.989,1.749-2.6a5.239,5.239,0,0,1,1.387-.725,3.7,3.7,0,0,1,4.281,2.114,7.14,7.14,0,0,1,.181,1.148,3.546,3.546,0,0,1-1.387,3.08,3.766,3.766,0,0,1-.784.362,2.584,2.584,0,0,1-1.568.3,5.586,5.586,0,0,1-1.507-.483,5.378,5.378,0,0,0-1.327-.846,3.266,3.266,0,0,0-2.593.906,0.628,0.628,0,0,0-.121.362,2.142,2.142,0,0,0,.9,2.174L64.4,49.941l1.688,1.752a2.1,2.1,0,0,1,.362.181,2.268,2.268,0,0,0,.844-0.06,2.7,2.7,0,0,0,.844-1.027c0.381-.572.778-1.213,1.146-1.812,0.2-.327.244-0.673,0.422-1.027,2.411-4.786,3.286-10.819,3.317-18a5.249,5.249,0,0,1-1.145-.3c-0.492-.157-0.9-0.136-1.387-0.3l-1.93-.664a45.879,45.879,0,0,1-6.513-2.658L61.5,25.842c-1.644-.865-3.178-1.92-4.7-2.9a5.987,5.987,0,0,0-1.266.846c-1.006.64-2.067,1.189-3.075,1.812l-0.965.423c-1.1.576-2.333,1.129-3.5,1.631-0.3.13-.541,0.114-0.844,0.242-1.028.434-2.22,0.834-3.317,1.208l-1.085.241A11.735,11.735,0,0,1,40.455,29.949Zm15.98,12.079c-0.17.125-.425,0.12-0.6,0.242a1.486,1.486,0,0,0-.422,1.691,1.251,1.251,0,0,0,1.387.906,0.78,0.78,0,0,0,.543-0.121,1.456,1.456,0,0,0,.784-1.812A1.531,1.531,0,0,0,56.435,42.029Zm-0.3,4.409a2.86,2.86,0,0,1-.6.181,4.172,4.172,0,0,0-.724.483L53.722,48.25l-2.653,2.6a2.841,2.841,0,0,1-.241.362,11.007,11.007,0,0,0-2.111,2.235c-0.492,1.181.608,2,1.086,2.476a26.117,26.117,0,0,0,4.945,3.624,6.609,6.609,0,0,0,2.111,1.087,2.354,2.354,0,0,1,.6-0.3c0.365-.192.744-0.453,1.086-0.664l0.362-.121c0.98-.607,1.965-1.256,2.895-1.933l0.181-.242c0.246-.181.478-0.3,0.724-0.483l0.3-.362a6.832,6.832,0,0,0,1.749-1.691c0.8-1.3-.782-2.419-1.387-2.96l-1.206-1.268-2.472-2.416A5.508,5.508,0,0,0,57.581,46.5,5.364,5.364,0,0,0,56.134,46.438Z" transform="translate(-29.469 -19.313)"/>
</svg>
